<svg xmlns="http://www.w3.org/2000/svg" viewBox="0 0 4310 5550"><g fill="#fff" style="fill:#fff"><path d="M1739 4897c-65-104-87-157-239-577-60-166-74-251-74-435 1-170 12-255 89-649 75-384 98-603 84-821-7-105-35-258-58-318l-11-27H842l-31-26c-52-44-69-158-30-208 77-98 394-156 859-156 85 0 462-9 837-21 673-21 683-21 715-2 56 33 63 104 15 173-49 72-54 74-422 105-93 8-326 31-517 52l-348 37v995l104 83c277 221 504 307 658 249 102-39 191-158 208-279 28-199-130-401-328-419l-59-6-74 57c-88 67-196 122-260 131-83 12-189-54-175-109 8-31 67-64 130-72 63-9 100-35 141-99 19-30 51-79 70-109s51-67 71-83c74-56 234-40 409 41 312 144 479 413 435 701-43 282-220 493-480 573-263 80-558-5-829-238l-69-60-30 77c-82 212-111 414-81 555 12 56 72 202 188 461 39 86 71 162 71 168 0 10-240 297-250 298-3 1-17-18-31-42zM1070 1586c-260-73-406-347-356-671 43-288 191-504 418-614 140-68 209-85 343-85 89-1 123 4 179 22 195 65 329 172 539 430 205 252 358 339 548 312 65-9 167-45 214-74 11-7 37-18 57-25 76-25 171 29 204 116 15 39 16 52 5 90-27 102-139 200-298 261-113 44-186 55-310 50-181-8-349-78-538-223-110-84-150-128-230-249-90-137-172-223-249-261-51-25-64-27-134-23-100 6-194 49-270 124-62 62-92 124-99 203-6 70 8 123 48 184 44 66 100 97 176 97 51 0 74-7 141-40 44-22 103-61 131-86l50-45 16 38c24 55 15 157-19 226-33 68-124 156-204 196-113 57-258 76-362 47z" style="fill:#fff"/></g></svg>